# xmcd
#
# Track frame offsets: 
#        150
#        19959
#        39507
#        59315
#        73901
#        85632
#        100502
#        127519
#        146240
#        162287
#        176530
#        192222
#        211733
#        226730
#        242357
#        274376
#        316295
#
# Disc length: 4409 seconds
#
# Revision: 3
# Processed by: cddbd v1.5.2PL0 Copyright (c) Steve Scherf et al.
# Submitted via: ExactAudioCopyFreeDBPlugin 1.0
#
DISCID=dd113711
DTITLE=Various Artist - Nova Tunes 1.2
DYEAR=2005
DGENRE=Alternative
TTITLE0=Wax Tailor feat. Charlotte Savary - Our Dance
TTITLE1=Ohmega Watts feat. The Procussions, Lightheaded and Noelle - Tha
TTITLE1=t Sound
TTITLE2=Sharon Jones - This Land Is Our Land
TTITLE3=Tahiti 80 - Big Day
TTITLE4=Feist - Gatekeeper
TTITLE5=Benny Sings - Get There
TTITLE6=Groundation - Praising
TTITLE7=Sébastien Schuller - Sleeping Song
TTITLE8=K-Os - Man I Used To Be
TTITLE9=The Chemical Brothers feat. Q Tip - Galvanize (Radio Edit)
TTITLE10=Winston Mc Anuf - Camille BazBaz - Sort Me Out
TTITLE11=Niko - You're My Favourite Music
TTITLE12=Quantic Soul Orchestra - Walking Through Tomorrow (TM Juke Mi
TTITLE12=x)
TTITLE13=Syd Matters - To All Of You
TTITLE14=Joe Dukie and DJ Fitchie - Midnight Marauders
TTITLE15=Thievery Corporation - The Heart's A Lonely Hunter (Louie Veg
TTITLE15=a Remix)
TTITLE16=Grand National - Peanut Dreams
EXTD=
EXTT0=
EXTT1=
EXTT2=
EXTT3=
EXTT4=
EXTT5=
EXTT6=
EXTT7=
EXTT8=
EXTT9=
EXTT10=
EXTT11=
EXTT12=
EXTT13=
EXTT14=
EXTT15=
EXTT16=
PLAYORDER=
